<svg width="136" height="118" viewBox="0 0 136 118" fill="none" xmlns="http://www.w3.org/2000/svg">
<path d="M44.0001 5.53297C46.8001 1.13297 51.5001 0.366299 53.5001 0.532966C61.1001 2.13297 67.3334 11.1996 69.5001 15.533L53.5001 41.533L45.0001 26.533H31.0001C34.1667 21.3663 41.2001 9.93297 44.0001 5.53297Z" fill="#515713"/>
<path d="M51.4601 0.0329515L49.5001 0.0329498C50.1671 -0.0115185 50.8203 -0.0105067 51.4601 0.0329515L85.5001 0.0329819C88.6667 0.0329819 96.4001 3.83298 102 19.033L107.5 16.033L100.5 42.033L74.0001 34.533L79.5001 31.533C72.8113 21.4999 65.2096 0.96679 51.4601 0.0329515Z" fill="#808C0B"/>
<path d="M125.373 58.6328C127.904 63.1928 126.336 67.6892 125.235 69.3674C120.203 75.2834 109.261 76.4362 104.419 76.2731L89.2016 49.8074L106.44 49.4932L113.119 37.1891C116.149 42.437 122.842 54.0729 125.373 58.6328Z" fill="#515713"/>
<path d="M126.648 67.8132L127.583 66.0905C127.304 66.698 126.991 67.2715 126.648 67.8132L110.408 97.7296C108.897 100.513 101.868 105.496 85.8379 103.166L85.8506 109.431L66.3396 90.8755L85.5736 71.1637L85.5862 77.4286C97.595 76.3367 119.267 79.4515 126.648 67.8132Z" fill="#808C0B"/>
<path d="M37.9844 102.243C32.7696 102.164 29.654 98.5624 28.748 96.7716C26.1287 89.46 30.5851 79.4002 33.1407 75.2843L63.6694 75.2891L55.347 90.3883L62.6825 102.313C56.6226 102.323 43.1991 102.323 37.9844 102.243Z" fill="#515713"/>
<path d="M29.391 98.771L30.418 100.44C30.0306 99.8956 29.6893 99.3387 29.391 98.771L11.5553 69.7778C9.8961 67.0806 9.08072 58.5027 19.093 45.7687L13.6559 42.6561L39.4689 34.9952L46.9659 61.496L41.5289 58.3833C36.488 69.3374 22.9822 86.5707 29.391 98.771Z" fill="#808C0B"/>
</svg>
